<svg xmlns="http://www.w3.org/2000/svg" width="600" height="400" viewBox="0 0 600 400">
  <rect width="100%" height="100%" fill="#f8f9fa"/>
  <g transform="translate(300 200)">
    <circle cx="0" cy="0" r="150" fill="#4CAF50" opacity="0.1"/>
    
    <!-- Garden/Farm Elements -->
    <g transform="translate(-100 -50)">
      <!-- Plants -->
      <path d="M-20 50 C-20 20 -10 10 0 0 C10 10 20 20 20 50" fill="#2E7D32"/>
      <path d="M-15 40 C-15 20 -5 10 0 5 C5 10 15 20 15 40" fill="#4CAF50"/>
      <rect x="-5" y="40" width="10" height="20" fill="#795548"/>
    </g>
    
    <g transform="translate(0 -30)">
      <!-- Larger Plant -->
      <path d="M-30 60 C-30 20 -15 10 0 0 C15 10 30 20 30 60" fill="#2E7D32"/>
      <path d="M-20 50 C-20 20 -10 10 0 5 C10 10 20 20 20 50" fill="#4CAF50"/>
      <rect x="-7" y="50" width="14" height="25" fill="#795548"/>
    </g>
    
    <g transform="translate(80 -40)">
      <!-- Small Plant -->
      <path d="M-15 40 C-15 20 -7 10 0 0 C7 10 15 20 15 40" fill="#2E7D32"/>
      <path d="M-10 35 C-10 20 -5 10 0 5 C5 10 10 20 10 35" fill="#4CAF50"/>
      <rect x="-4" y="35" width="8" height="15" fill="#795548"/>
    </g>
    
    <!-- Chef's Hat and Utensils -->
    <g transform="translate(-50 50)">
      <path d="M-20 0 C-20 -20 20 -20 20 0 L15 20 L-15 20 Z" fill="white" stroke="#333" stroke-width="2"/>
      <path d="M-10 20 L-10 40 M10 20 L10 40" stroke="#333" stroke-width="2"/>
    </g>
    
    <!-- Plate with Vegetables -->
    <g transform="translate(50 70)">
      <circle cx="0" cy="0" r="30" fill="white" stroke="#333" stroke-width="2"/>
      <circle cx="-10" cy="-5" r="8" fill="#4CAF50"/>
      <circle cx="10" cy="5" r="6" fill="#81C784"/>
      <path d="M-5 10 Q0 15 5 10" stroke="#2E7D32" stroke-width="2" fill="none"/>
    </g>
  </g>
  
  <!-- Decorative Elements -->
  <g transform="translate(300 200)">
    <circle cx="-120" cy="-100" r="5" fill="#4CAF50"/>
    <circle cx="130" cy="-90" r="4" fill="#81C784"/>
    <circle cx="-140" cy="80" r="6" fill="#2E7D32"/>
    <circle cx="110" cy="100" r="5" fill="#4CAF50"/>
  </g>
</svg>