<svg xmlns="http://www.w3.org/2000/svg" width="800" height="1000" viewBox="0 0 800 1000">
  <rect width="100%" height="100%" fill="#ffffff"/>
  <text x="50" y="60" font-family="Arial" font-size="24" font-weight="bold">Technology Student Association Work Log</text>
  
  <g transform="translate(50, 100)">
    <rect width="700" height="800" fill="#f8f9fa" stroke="#dee2e6"/>
    
    <!-- Header Section -->
    <g transform="translate(20, 40)">
      <text font-family="Arial" font-size="16">Student Name: ___________________</text>
      <text x="0" y="40" font-family="Arial" font-size="16">Project: Green Plate Website</text>
      <text x="0" y="80" font-family="Arial" font-size="16">Date Range: ___________________</text>
    </g>
    
    <!-- Work Log Table -->
    <g transform="translate(20, 160)">
      <!-- Table Header -->
      <rect width="660" height="40" fill="#e9ecef"/>
      <text x="10" y="25" font-family="Arial" font-size="14" font-weight="bold">Date</text>
      <text x="120" y="25" font-family="Arial" font-size="14" font-weight="bold">Task Description</text>
      <text x="500" y="25" font-family="Arial" font-size="14" font-weight="bold">Hours</text>
      
      <!-- Table Rows -->
      <g transform="translate(0, 40)">
        <!-- Row Lines -->
        <line x1="0" y1="0" x2="660" y2="0" stroke="#dee2e6"/>
        <line x1="0" y1="40" x2="660" y2="40" stroke="#dee2e6"/>
        <line x1="0" y1="80" x2="660" y2="80" stroke="#dee2e6"/>
        <line x1="0" y1="120" x2="660" y2="120" stroke="#dee2e6"/>
        <line x1="0" y1="160" x2="660" y2="160" stroke="#dee2e6"/>
        <line x1="0" y1="200" x2="660" y2="200" stroke="#dee2e6"/>
        
        <!-- Vertical Lines -->
        <line x1="100" y1="0" x2="100" y2="200" stroke="#dee2e6"/>
        <line x1="480" y1="0" x2="480" y2="200" stroke="#dee2e6"/>
      </g>
    </g>
    
    <!-- Summary Section -->
    <g transform="translate(20, 500)">
      <text font-family="Arial" font-size="16" font-weight="bold">Project Summary:</text>
      <rect x="0" y="30" width="660" height="100" fill="none" stroke="#dee2e6"/>
    </g>
    
    <!-- Signature Section -->
    <g transform="translate(20, 650)">
      <text font-family="Arial" font-size="16" font-weight="bold">Student Signature: _________________</text>
      <text x="0" y="40" font-family="Arial" font-size="16" font-weight="bold">Supervisor Signature: _________________</text>
      <text x="0" y="80" font-family="Arial" font-size="16" font-weight="bold">Date: ___________________</text>
    </g>
  </g>
</svg>